<svg width="64" height="64" viewBox="0 0 64 64" fill="none" xmlns="http://www.w3.org/2000/svg">
<path fill-rule="evenodd" clip-rule="evenodd" d="M59.9829 15.756C56.19 13.8903 52.1416 14.9068 48.4544 16.7167C45.3952 13.4733 41.4325 11.2234 37.0797 10.2585C32.7268 9.29355 28.1845 9.65814 24.0413 11.305C19.8981 12.9518 16.345 15.805 13.8423 19.4949C11.3397 23.1847 10.0028 27.5411 10.005 31.9996C10.0081 32.959 10.0722 33.9171 10.1972 34.8683C6.58492 36.1979 3.30892 38.3787 1.81982 42.0236C0.0136972 46.1816 3.86613 49.4249 7.84153 49.3711C16.9812 48.9168 24.1746 42.2741 30.6801 36.2666C31.3287 35.6677 31.9705 35.0751 32.6066 34.4956C33.2726 33.8706 33.9394 33.2366 34.6096 32.5995L34.6103 32.5988C38.7013 28.7097 42.9152 24.7036 47.8007 21.9167L47.7988 21.9128C48.8745 21.259 50.0035 20.6969 51.1736 20.2325L51.412 20.1379L51.4139 20.1423C52.1764 19.8375 52.9527 19.5683 53.7402 19.3356C55.0391 18.9802 58.7167 18.4806 58.2094 20.6652V20.6575C57.2607 22.8463 55.5477 24.1036 53.5645 24.9811L53.5673 24.9873L51.935 25.653L50.1716 26.2002C50.7021 27.8348 51.0085 29.5419 51.0759 31.2747C51.2074 34.6566 50.4238 38.0112 48.8077 40.9849C47.1916 43.9585 44.803 46.4409 41.8937 48.1702C38.9845 49.8995 35.6624 50.8116 32.278 50.8103C28.2162 50.8103 23.1648 49.7112 22.1176 48.0742L19.2048 49.9379C21.3913 53.3561 28.4506 54.2688 32.2704 54.2688C35.4198 54.271 38.5338 53.6049 41.4068 52.3146C44.2798 51.0243 46.8463 49.1392 48.9368 46.7837C51.0274 44.4281 52.5944 41.6559 53.5344 38.65C54.4743 35.6441 54.7658 32.473 54.3896 29.3462C58.0672 27.8456 61.3067 25.365 62.4346 21.4146C63.0744 18.9802 62.1906 16.9646 59.9829 15.756ZM8.2969 45.1287C5.70684 45.3016 4.83836 43.7203 6.83663 41.9795C8.07775 40.7409 9.54459 39.7515 11.1579 39.0647C11.7082 40.7151 12.4532 42.2941 13.3771 43.7683C11.7758 44.5178 10.0547 44.9784 8.29306 45.1287H8.2969ZM26.3063 34.1094C25.1857 34.9237 24.1738 35.8779 23.2953 36.9489C23.1097 36.7518 22.9646 36.5202 22.8681 36.2672C22.7714 36.0133 22.7255 35.7428 22.7333 35.4711C22.749 34.9225 22.9819 34.4026 23.3809 34.0258C23.78 33.6489 24.3123 33.446 24.8609 33.4617C25.4095 33.4774 25.9295 33.7103 26.3063 34.1094ZM26.3812 27.5458C25.9596 27.5466 25.5473 27.4222 25.1964 27.1886C24.8454 26.9549 24.5717 26.6224 24.4098 26.2331C24.248 25.8438 24.2052 25.4152 24.287 25.0016C24.3688 24.588 24.5714 24.208 24.8693 23.9096C25.1671 23.6112 25.5468 23.4079 25.9603 23.3253C26.3737 23.2428 26.8024 23.2848 27.1919 23.446C27.5815 23.6071 27.9145 23.8802 28.1488 24.2307C28.3832 24.5812 28.5082 24.9934 28.5082 25.415C28.5085 25.6949 28.4535 25.9721 28.3465 26.2307C28.2395 26.4893 28.0826 26.7243 27.8847 26.9223C27.6868 27.1202 27.4518 27.2771 27.1931 27.3841C26.9357 27.4906 26.6598 27.5456 26.3812 27.5458ZM35.1967 25.4841C35.02 25.2774 34.8859 25.0378 34.8018 24.7792C34.7178 24.5206 34.6855 24.2479 34.7068 23.9768C34.7281 23.7057 34.8026 23.4414 34.9261 23.1991C35.0495 22.9568 35.2195 22.7412 35.4263 22.5646C35.8439 22.2078 36.3861 22.0316 36.9336 22.0747C37.2047 22.096 37.469 22.1705 37.7113 22.294C37.9536 22.4174 38.1692 22.5874 38.3459 22.7942C37.1859 23.5531 36.1276 24.457 35.1967 25.4841ZM43.2781 19.741C42.7978 20.0677 42.4961 20.1637 41.9773 19.741C39.516 17.7274 36.6762 16.6226 33.5077 16.2652C31.8602 16.0797 30.1933 16.1699 28.5755 16.5323C28.8419 16.7679 29.0451 17.0666 29.1664 17.4009C29.2878 17.7353 29.3234 18.0948 29.27 18.4465C29.2166 18.7981 29.076 19.1308 28.8609 19.4142C28.6459 19.6975 28.3633 19.9224 28.0389 20.0684C27.7145 20.2144 27.3587 20.2768 27.004 20.2499C26.6494 20.223 26.3071 20.1076 26.0085 19.9143C25.7098 19.7211 25.4644 19.456 25.2946 19.1435C25.1247 18.831 25.0359 18.4808 25.0362 18.1251C25.0367 18.0079 25.047 17.8909 25.067 17.7754C21.7203 19.4385 19.0479 22.2025 17.4985 25.6033C17.5846 25.5926 17.6712 25.5868 17.7579 25.586C18.1012 25.5886 18.4388 25.6742 18.7419 25.8354C19.045 25.9966 19.3046 26.2287 19.4988 26.5118C19.6929 26.7949 19.8157 27.1208 19.8568 27.4616C19.8979 27.8024 19.8561 28.1481 19.7348 28.4693C19.6136 28.7905 19.4165 29.0776 19.1605 29.3062C18.9044 29.5349 18.5969 29.6983 18.2641 29.7825C17.9312 29.8667 17.583 29.8693 17.249 29.7899C16.915 29.7106 16.6051 29.5518 16.3457 29.327C16.1663 30.393 16.1019 31.4752 16.1536 32.5549C16.1536 32.5549 16.3611 35.6407 17.4697 37.9829C17.7265 38.5267 17.9452 38.9518 18.1197 39.2912C18.4852 40.0016 18.6573 40.336 18.5796 40.5957C18.5106 40.8267 18.2442 40.9987 17.7409 41.3237L17.6984 41.3512C17.2814 41.6202 16.8606 41.8853 16.4322 42.1447C13.9428 38.2651 12.9649 33.6063 13.6843 29.0532C14.4036 24.5 16.7702 20.3697 20.3344 17.4465C23.8986 14.5233 28.4123 13.011 33.0182 13.1967C37.624 13.3823 42.0013 15.2531 45.3187 18.4537C44.6135 18.8841 43.9314 19.3222 43.2781 19.7487V19.741ZM44.36 41.7583C44.0049 41.7109 43.6675 41.5747 43.379 41.3622C43.0906 41.1497 42.8605 40.8679 42.7099 40.5429C42.5593 40.2178 42.4932 39.86 42.5177 39.5026C42.5422 39.1452 42.6565 38.7997 42.85 38.4982C43.0435 38.1967 43.31 37.949 43.6247 37.7778C43.9394 37.6067 44.2922 37.5177 44.6505 37.5192C45.0087 37.5207 45.3608 37.6126 45.6741 37.7863C45.9874 37.96 46.2518 38.21 46.4428 38.5131C47.4561 36.3956 47.9444 34.0651 47.8665 31.719V31.4826C47.8373 31.4037 47.8167 31.3219 47.805 31.2386C47.7916 31.1338 47.7784 31.029 47.7652 30.9243L47.7652 30.9242C47.5894 29.5309 47.4148 28.1467 46.7483 26.9154L46.5734 26.9769C44.8883 28.2181 43.282 29.5401 41.7161 30.9062C42.0301 31.0583 42.302 31.2853 42.5077 31.5672C42.7134 31.8491 42.8466 32.1772 42.8957 32.5227C42.9448 32.8682 42.9082 33.2205 42.7892 33.5485C42.6701 33.8765 42.4722 34.1702 42.213 34.4038C41.9537 34.6374 41.641 34.8036 41.3024 34.888C40.9638 34.9723 40.6097 34.9721 40.2712 34.8874C39.9326 34.8027 39.6201 34.6361 39.3611 34.4022C39.1022 34.1683 38.9046 33.8744 38.7859 33.5462C37.6998 34.5521 36.6252 35.5703 35.5505 36.5887C32.1212 39.838 28.6898 43.0894 24.873 45.9509C31.7171 49.5881 39.8293 47.1998 44.36 41.7583ZM34.1227 40.7342C34.5442 40.7342 34.9563 40.8592 35.3067 41.0935C35.6572 41.3277 35.9303 41.6606 36.0915 42.0501C36.2527 42.4395 36.2948 42.8681 36.2124 43.2815C36.1301 43.6949 35.9269 44.0746 35.6287 44.3725C35.3305 44.6704 34.9507 44.8732 34.5372 44.9552C34.1237 45.0372 33.6952 44.9947 33.3059 44.8332C32.9166 44.6716 32.5839 44.3982 32.35 44.0475C32.1161 43.6968 31.9915 43.2847 31.9918 42.8631C31.9923 42.2983 32.2171 41.7568 32.6166 41.3577C33.0162 40.9585 33.5579 40.7342 34.1227 40.7342Z" fill="currentColor" />
</svg>
